<?xml version="1.0" encoding="UTF-8" standalone="no"?>
<!-- Created with Inkscape (http://www.inkscape.org/) -->

<svg
   xmlns:dc="http://purl.org/dc/elements/1.1/"
   xmlns:cc="http://creativecommons.org/ns#"
   xmlns:rdf="http://www.w3.org/1999/02/22-rdf-syntax-ns#"
   xmlns:svg="http://www.w3.org/2000/svg"
   xmlns="http://www.w3.org/2000/svg"
   xmlns:sodipodi="http://sodipodi.sourceforge.net/DTD/sodipodi-0.dtd"
   xmlns:inkscape="http://www.inkscape.org/namespaces/inkscape"
   width="25mm"
   height="15mm"
   viewBox="0 0 25.000001 15"
   version="1.1"
   id="svg8"
   inkscape:version="0.92.5 (2060ec1f9f, 2020-04-08)"
   sodipodi:docname="wks.svg">
  <defs
     id="defs2">
    <clipPath
       clipPathUnits="userSpaceOnUse"
       id="clipPath4588">
      <g
         inkscape:label="Clip"
         id="use4590">
        <g
           style="stroke-width:5;stroke-miterlimit:3.20000005;stroke-dasharray:none;paint-order:stroke fill markers"
           id="g4624">
          <path
             style="fill:none;stroke:#000000;stroke-width:5;stroke-linecap:round;stroke-linejoin:round;stroke-miterlimit:3.20000005;stroke-dasharray:none;stroke-opacity:1;paint-order:stroke fill markers"
             d="m 16.630952,69.528541 c 3.030899,5.05491 5.522243,9.218209 7.570082,12.647152 9.455704,15.832815 9.455704,16.008829 9.455704,16.008829 L 44.900181,85.680093 v 0 0"
             id="path4604"
             inkscape:connector-curvature="0"
             sodipodi:nodetypes="cscccc" />
          <path
             sodipodi:nodetypes="cscccc"
             inkscape:connector-curvature="0"
             id="path4606"
             d="m 73.169411,69.528541 c -3.030904,5.05491 -5.522246,9.218209 -7.570083,12.647152 -9.455704,15.832815 -9.455704,16.008829 -9.455704,16.008829 L 44.900181,85.680093 v 0 0"
             style="fill:none;stroke:#000000;stroke-width:5;stroke-linecap:round;stroke-linejoin:round;stroke-miterlimit:3.20000005;stroke-dasharray:none;stroke-opacity:1;paint-order:stroke fill markers" />
          <g
             transform="translate(23.452901,-5.5792517)"
             id="g4622"
             style="font-style:normal;font-variant:normal;font-weight:normal;font-stretch:normal;font-size:10.58333302px;line-height:1.25;font-family:Cousine;-inkscape-font-specification:Cousine;letter-spacing:0px;word-spacing:0px;fill:#000000;fill-opacity:1;stroke:none;stroke-width:0.2;stroke-miterlimit:3.20000005;stroke-dasharray:none"
             aria-label="Ww kK sS">
            <path
               inkscape:connector-curvature="0"
               id="path4608"
               style="font-style:normal;font-variant:normal;font-weight:bold;font-stretch:normal;font-family:Cousine;-inkscape-font-specification:'Cousine Bold';letter-spacing:3.47662544px;word-spacing:2.38654184px;stroke-width:0.2;stroke-miterlimit:3.20000005;stroke-dasharray:none"
               d="m 56.49867,48.840237 h -1.260905 l -0.738973,-2.43396 q -0.129191,-0.413412 -0.139526,-0.5271 -0.0052,0.04651 -0.05684,0.242879 -0.05168,0.191203 -0.857828,2.718181 H 52.18886 l -0.945678,-5.59139 h 1.178222 l 0.428915,3.136759 q 0.09819,0.785482 0.09819,1.167888 l 0.103353,-0.382406 0.81132,-2.552816 h 0.997355 l 0.72347,2.351278 q 0.07752,0.258382 0.149862,0.583944 0,-0.320394 0.05168,-0.738973 0.05168,-0.41858 0.5271,-3.565674 h 1.167887 z" />
            <path
               sodipodi:nodetypes="ccccccccc"
               inkscape:connector-curvature="0"
               id="path4610"
               style="font-style:normal;font-variant:normal;font-weight:bold;font-stretch:normal;font-family:Cousine;-inkscape-font-specification:'Cousine Bold';letter-spacing:3.47662544px;word-spacing:2.38654184px;stroke-width:2.81633353;stroke-miterlimit:3.20000005;stroke-dasharray:none"
               d="m 43.541321,305.38557 -20,-25 -19.9999997,15 v -30 l 39.9999997,-40 h 40 l -40,40 40,40 z" />
            <path
               inkscape:connector-curvature="0"
               id="path4612"
               style="font-style:normal;font-variant:normal;font-weight:bold;font-stretch:normal;font-family:Cousine;-inkscape-font-specification:'Cousine Bold';letter-spacing:3.47662544px;word-spacing:2.38654184px;stroke-width:0.2;stroke-miterlimit:3.20000005;stroke-dasharray:none"
               d="m 87.608545,48.840237 -1.669149,-2.878378 -0.656291,0.733806 v 2.144572 H 83.75865 v -6.971151 h 1.524455 v 3.095418 l 2.253093,-3.095418 h 1.772501 l -2.377116,2.992065 2.475301,3.979086 z" />
            <path
               inkscape:connector-curvature="0"
               id="path4614"
               style="font-style:normal;font-variant:normal;font-weight:bold;font-stretch:normal;font-family:Cousine;-inkscape-font-specification:'Cousine Bold';letter-spacing:3.47662544px;word-spacing:2.38654184px;stroke-width:0.2;stroke-miterlimit:3.20000005;stroke-dasharray:none"
               d="m 110.80279,47.207261 q 0,0.81132 -0.66662,1.276408 -0.66146,0.459921 -1.83452,0.459921 -1.15238,0 -1.76733,-0.361735 -0.60978,-0.366903 -0.81132,-1.136882 l 1.27641,-0.191203 q 0.10852,0.397909 0.37207,0.563273 0.26871,0.165365 0.93017,0.165365 0.60978,0 0.88884,-0.155029 0.27905,-0.15503 0.27905,-0.485759 0,-0.268717 -0.22738,-0.423747 -0.22221,-0.160196 -0.75964,-0.268717 -1.2299,-0.242879 -1.65881,-0.449585 -0.42892,-0.211873 -0.65629,-0.542602 -0.22221,-0.335897 -0.22221,-0.821656 0,-0.800984 0.61495,-1.245402 0.62011,-0.449585 1.75183,-0.449585 0.99735,0 1.60197,0.387574 0.60978,0.387573 0.75964,1.121378 l -1.28674,0.134359 q -0.062,-0.341065 -0.30489,-0.506429 -0.24288,-0.170532 -0.76998,-0.170532 -0.51677,0 -0.77515,0.134358 -0.25838,0.129191 -0.25838,0.43925 0,0.242879 0.19637,0.387573 0.20154,0.139527 0.67179,0.232544 0.65629,0.134359 1.16272,0.279053 0.5116,0.139526 0.81649,0.335897 0.31006,0.19637 0.49093,0.506429 0.18603,0.304891 0.18603,0.785481 z" />
            <path
               inkscape:connector-curvature="0"
               id="path4616"
               style="font-style:normal;font-variant:normal;font-weight:bold;font-stretch:normal;font-family:Cousine;-inkscape-font-specification:'Cousine Bold';letter-spacing:3.47662544px;word-spacing:2.38654184px;stroke-width:0.2;stroke-miterlimit:3.20000005;stroke-dasharray:none"
               d="m 120.94567,46.819688 q 0,0.992188 -0.75964,1.560628 -0.75448,0.563274 -2.10323,0.563274 -1.2144,0 -1.97921,-0.511597 -0.76481,-0.511597 -0.98185,-1.488281 l 1.47277,-0.191203 q 0.11886,0.485758 0.4961,0.769979 0.37724,0.279052 1.03353,0.279052 0.68213,0 1.00769,-0.217041 0.33073,-0.217041 0.33073,-0.676961 0,-0.341064 -0.28939,-0.573608 -0.28939,-0.237712 -0.84233,-0.372071 -1.11104,-0.268717 -1.57096,-0.465087 -0.45475,-0.201538 -0.72864,-0.449585 -0.27388,-0.248047 -0.42375,-0.578776 -0.14469,-0.335897 -0.14469,-0.749309 0,-0.904337 0.72347,-1.431437 0.72864,-0.527099 1.9172,-0.527099 1.15755,0 1.80867,0.45992 0.65112,0.454752 0.84233,1.415934 l -1.47795,0.149862 q -0.22738,-0.945679 -1.20406,-0.945679 -0.54777,0 -0.83716,0.206706 -0.28939,0.201538 -0.28939,0.583943 0,0.253215 0.13953,0.423747 0.13953,0.165365 0.37724,0.284221 0.24288,0.113688 0.98185,0.30489 0.97152,0.237712 1.49345,0.532268 0.52193,0.289388 0.76481,0.702799 0.24288,0.413412 0.24288,0.940511 z" />
            <text
               id="text4620"
               y="156.51645"
               x="46.838978"
               style="font-style:normal;font-variant:normal;font-weight:normal;font-stretch:normal;font-size:10.58333302px;line-height:1.25;font-family:'Gillius ADF No2';-inkscape-font-specification:'Gillius ADF No2';letter-spacing:0px;word-spacing:0px;fill:#000000;fill-opacity:1;stroke:none;stroke-width:0.05291667"
               xml:space="preserve"><tspan
                 style="font-style:normal;font-variant:normal;font-weight:normal;font-stretch:normal;font-family:'Gillius ADF No2';-inkscape-font-specification:'Gillius ADF No2';stroke-width:0.05291667"
                 y="156.51645"
                 x="46.838978"
                 id="tspan4618"
                 sodipodi:role="line">Λ  λ   W   K   S   w   k   s</tspan></text>
          </g>
        </g>
      </g>
    </clipPath>
  </defs>
  <sodipodi:namedview
     id="base"
     pagecolor="#ffffff"
     bordercolor="#666666"
     borderopacity="1.0"
     inkscape:pageopacity="0.0"
     inkscape:pageshadow="2"
     inkscape:zoom="5.6"
     inkscape:cx="67.426049"
     inkscape:cy="22.626144"
     inkscape:document-units="mm"
     inkscape:current-layer="layer1"
     showgrid="false"
     inkscape:window-width="1920"
     inkscape:window-height="1043"
     inkscape:window-x="1920"
     inkscape:window-y="0"
     inkscape:window-maximized="1" />
  <metadata
     id="metadata5">
    <rdf:RDF>
      <cc:Work
         rdf:about="">
        <dc:format>image/svg+xml</dc:format>
        <dc:type
           rdf:resource="http://purl.org/dc/dcmitype/StillImage" />
        <dc:title></dc:title>
      </cc:Work>
    </rdf:RDF>
  </metadata>
  <g
     inkscape:label="Layer 1"
     inkscape:groupmode="layer"
     id="layer1"
     transform="translate(-71.612005,-145.12531)">
    <g
       aria-label="Λ  λ   W   K   S   w   k   s"
       style="font-style:normal;font-variant:normal;font-weight:normal;font-stretch:normal;font-size:10.58333302px;line-height:1.25;font-family:'Gillius ADF No2';-inkscape-font-specification:'Gillius ADF No2';letter-spacing:0px;word-spacing:0px;fill:#0c0938;fill-opacity:0.84433959;stroke:none;stroke-width:0.05291667;stroke-miterlimit:3.20000005;stroke-dasharray:none;paint-order:stroke fill markers"
       id="text4571"
       transform="translate(8.7826418,-6.1607724)">
      <g
         id="g4700"
         style="fill:#0c0938;fill-opacity:0.84433959" />
      <g
         id="g4714"
         transform="matrix(1.0689024,0,0,1,-5.7964023,0)"
         style="fill:#0c0938;fill-opacity:0.84433959">
        <path
           d="m 75.159125,158.62531 3.926982,-3.54819 8.17e-4,1.33312 -2.354466,2.15488 2.357362,2.63065 8.17e-4,1.3331 -3.057698,-3.34602 -0.563032,0.50786 c -0.23886,0.21504 -0.358142,0.56639 -0.357847,1.05404 l 3.95e-4,0.65634 -0.449531,9.8e-4 0.0052,-0.79987 c 0.0051,-1.03003 0.168736,-1.68919 0.491009,-1.97746 z"
           style="font-style:normal;font-variant:normal;font-weight:normal;font-stretch:normal;font-size:10.58333302px;line-height:1.25;font-family:'Gillius ADF No2';-inkscape-font-specification:'Gillius ADF No2';letter-spacing:0px;word-spacing:0px;fill:#0c0938;fill-opacity:0.84433959;stroke:none;stroke-width:0.04516131;stroke-miterlimit:3.20000005;stroke-dasharray:none;paint-order:stroke fill markers"
           id="path4658"
           inkscape:connector-curvature="0"
           sodipodi:nodetypes="cccccccccccccc" />
        <path
           d="m 84.124841,160.4761 c 0,-1.31233 -0.870919,-1.88383 -2.150083,-2.159 l -0.571544,-0.10583 c -0.734841,-0.15875 -1.333605,-0.34925 -1.333605,-1.19592 0.02726,-0.97367 0.802886,-1.28058 1.687409,-1.28058 0.816491,0 1.183912,0.1905 1.850721,0.52916 v -0.86783 c -0.544336,-0.23283 -1.415255,-0.381 -2.054843,-0.381 -1.415242,0 -2.449472,0.635 -2.449472,2.07433 0,1.28059 0.802887,1.70392 2.095668,1.9685 l 0.544322,0.10584 c 0.78927,0.21166 1.043565,0.46581 1.060136,1.38641 0.0167,0.92802 -0.487947,1.25444 -1.37247,1.25444 -0.843711,0 -1.677405,-0.18552 -2.344201,-0.60885 v 1.3331 c 0.80476,0.12202 1.733749,0.12689 2.522976,0.13517 1.590928,0.0167 2.514986,-0.58986 2.514986,-2.18794 z"
           style="font-style:normal;font-variant:normal;font-weight:normal;font-stretch:normal;font-size:10.58333302px;line-height:1.25;font-family:'Gillius ADF No2';-inkscape-font-specification:'Gillius ADF No2';letter-spacing:0px;word-spacing:0px;fill:#0c0938;fill-opacity:0.84433959;stroke:none;stroke-width:0.06000414;stroke-miterlimit:3.20000005;stroke-dasharray:none;paint-order:stroke fill markers"
           id="path4664"
           inkscape:connector-curvature="0"
           sodipodi:nodetypes="scccsccssccssccss" />
        <path
           inkscape:connector-curvature="0"
           id="path4660-4"
           style="font-style:normal;font-variant:normal;font-weight:normal;font-stretch:normal;font-size:10.58333302px;line-height:1.25;font-family:'Gillius ADF No2';-inkscape-font-specification:'Gillius ADF No2';letter-spacing:0px;word-spacing:0px;fill:#0c0938;fill-opacity:0.84433959;stroke:none;stroke-width:0.04985529;stroke-miterlimit:3.20000005;stroke-dasharray:none;paint-order:stroke fill markers"
           d="m 75.9535,155.07712 h -0.779719 l -1.493678,4.99533 -1.888236,-5.16466 -1.9446,5.16466 -1.465495,-4.99533 h -0.71396 l 2.18885,7.47183 1.935205,-5.54566 1.916417,5.54566 z" />
      </g>
    </g>
  </g>
</svg>
